<?xml version="1.0" encoding="utf-8"?>
<!-- Generator: Adobe Illustrator 27.5.0, SVG Export Plug-In . SVG Version: 6.00 Build 0)  -->
<svg version="1.1" id="レイヤー_1" xmlns="http://www.w3.org/2000/svg" xmlns:xlink="http://www.w3.org/1999/xlink" x="0px"
	 y="0px" viewBox="0 0 782.4 150.2" style="enable-background:new 0 0 782.4 150.2;" xml:space="preserve">
<style type="text/css">
	.st0{fill:#FFC144;}
	.st1{fill:#FF8F45;}
	.st2{fill:#FFA245;}
	.st3{fill:#FF8C80;}
</style>
<g>
	<g id="XMLID_1_">
		<g>
			<path class="st0" d="M558.5,8c37,0,67,30,67,67c0,37-30,67-67,67s-67-30-67-67C491.5,38,521.5,8,558.5,8z M575,75
				c0-9.1-7.4-16.5-16.5-16.5c-9.1,0-16.5,7.4-16.5,16.5c0,9.1,7.4,16.5,16.5,16.5C567.6,91.5,575,84.1,575,75z"/>
			<path class="st1" d="M492.1,58.5c0,28.4-23,51.3-51.3,51.3V74.2c8.6,0,15.6-7,15.6-15.7s-7-15.6-15.6-15.6V7.2
				C469.1,7.2,492.1,30.2,492.1,58.5z"/>
			<polygon class="st1" points="440.7,109.8 440.7,143 386.8,143 386.8,7.2 440.7,7.2 440.7,42.9 440.7,74.2 			"/>
			<polygon class="st0" points="377.2,7 377.2,75 356.2,75 356.2,69.7 291.8,69.7 291.8,75 270.5,75 270.5,7 			"/>
			<rect x="291.8" y="75" class="st0" width="64.3" height="67"/>
			<rect x="291.8" y="69.7" class="st0" width="64.3" height="5.3"/>
			<path class="st2" d="M270.5,75v68h-51v-2.9C248.8,132.9,270.5,106.5,270.5,75z"/>
			<path class="st2" d="M185.5,109.5v30.1c-28.3-7.9-49-33.8-49-64.6c0-37,30-67,67-67s67,30,67,67c0,31.5-21.7,57.9-51,65.1v-30.6
				V75c0-9.4-7.6-17-17-17c-9.4,0-17,7.6-17,17V109.5z"/>
			<rect x="185.5" y="75" class="st2" width="34" height="34.5"/>
			<path class="st2" d="M136.5,75c0,30.8,20.7,56.7,49,64.6v3.4h-49V75z"/>
			<path class="st1" d="M66.5,92h65.8c-7.5,28.8-33.7,50-64.8,50c-37,0-67-30-67-67c0-37,30-67,67-67c31.1,0,57.3,21.2,64.8,50H66.5
				c-9.4,0-17,7.6-17,17C49.5,84.4,57.1,92,66.5,92z"/>
		</g>
		<g>
		</g>
	</g>
</g>
<path class="st3" d="M704.5,26c0.2-6.4,0.3-12.9,2-19.1c0.6-2.4,1.6-4.8,3.5-6c1.7-1.1,3.7-0.9,5.6-0.8c4.7,0.4,9.4,1.1,13.6,3.5
	c5.7,3.3,9.9,9.7,11.8,16.7c1.9,7,1.8,14.7,0.5,21.9c-0.8,4.6-2.1,9.2-4.7,12.9c-2.6,3.7-6.5,6.3-10.6,5.8c-3.7-0.4-6.9-3.1-9.7-5.8
	c-5-4.8-9.8-10.5-11.4-17.8C704.3,33.7,704.4,29.8,704.5,26z M677.3,13.4c7.3,2.6,11.8,10.2,13.9,17.7c2.4,8.5,2.4,17.7-0.7,25.9
	c-1.1,3-2.7,5.9-5.3,7.8C655.1,86.4,637.2-0.9,677.3,13.4z M665,112.4c-0.7,1.9-1.6,3.8-3.2,4.9c-2.2,1.4-5.1,0.6-7.5-0.5
	c-8.2-3.8-14.8-11.3-18.1-20.3c-3.3-9-3-19.4,0.6-28.3c1.1-2.8,2.8-5.7,5.5-6.7c3.8-1.5,7.9,1.4,10.8,4.5
	c5.6,5.9,10.1,13.2,12.4,21.3C667.8,95.5,667.8,104.5,665,112.4z M759,126.7c-9.5,12.7-24.4,21.3-40.2,23.1
	c-15.8,1.8-32.2-3.1-44.4-13.4c-1.8-1.5-3.6-3.3-4.3-5.5c-0.9-3,0.3-6.1,1.6-8.9c4.9-10.3,11.9-19.5,16.8-29.7
	c4.8-10.1,8-18.9,18.6-23.9c1.2-0.6,2.5-1.1,3.8-0.9c1.3,0.1,2.4,0.8,3.5,1.5c11.7,7.4,20.8,17.2,33.8,22.9
	c5.3,2.3,11.2,4.4,14.6,9.1C768.2,108.5,764.6,119.2,759,126.7z M772.6,83.2c-2,1.5-4.5,2.5-7,2.4c-5.3-0.1-9.4-4.5-12.1-9.1
	c-8.3-14.4-7.3-33.7,2.5-47.1c1-1.4,2.2-2.8,3.8-3.6c3.9-1.8,8.3,1,11.3,4c10.6,11.1,14.2,28.3,8.9,42.7
	C778.4,76.7,776.1,80.6,772.6,83.2z"/>
</svg>
